<?xml version="1.0" standalone="no"?>
<!DOCTYPE svg PUBLIC "-//W3C//DTD SVG 20010904//EN"
 "http://www.w3.org/TR/2001/REC-SVG-20010904/DTD/svg10.dtd">
<svg version="1.0" xmlns="http://www.w3.org/2000/svg"
 width="512.000000pt" height="512.000000pt" viewBox="0 0 512.000000 512.000000"
 preserveAspectRatio="xMidYMid meet">
<metadata>
Created by potrace 1.16, written by Peter Selinger 2001-2019
</metadata>
<g transform="translate(0.000000,512.000000) scale(0.100000,-0.100000)"
fill="#000000" stroke="none">
<path d="M1999 4466 c-75 -20 -129 -59 -240 -173 -111 -114 -138 -160 -154
-264 -8 -56 8 -147 36 -208 17 -35 173 -198 628 -654 l606 -607 -612 -613
c-581 -583 -612 -615 -633 -672 -32 -84 -32 -198 0 -280 32 -82 214 -271 304
-315 117 -58 260 -48 369 25 74 49 1608 1588 1641 1647 15 25 31 61 37 80 12
40 14 191 4 239 -21 97 -34 111 -844 922 -432 433 -810 804 -839 824 -89 59
-200 77 -303 49z"/>
</g>
</svg>
